<svg id="Capa_1" enable-background="new 0 0 512 512" height="512" viewBox="0 0 512 512" width="512" xmlns="http://www.w3.org/2000/svg"><g><path d="m0 301h227.974l-119.996 180h296.044l-119.996-180h227.974v-30h-512z"/><path d="m392 245.761c71.593-60.863 120-92.12 120-143.394 0-40.019-29.648-71.367-67.5-71.367-24.316 0-41.807 10.62-52.5 19.951-10.693-9.331-28.184-19.951-52.5-19.951-37.852 0-67.5 31.348-67.5 71.367 0 50.416 46.061 80.536 120 143.394z"/><path d="m210 91h-60v-60h-90v60h-60v60h210zm-120-30h30v30h-30z"/><path d="m0 181h210v60h-210z"/></g></svg>