<svg id="Capa_1" enable-background="new 0 0 512 512" height="512" viewBox="0 0 512 512" width="512" xmlns="http://www.w3.org/2000/svg"><g><path d="m105.02 323.664h-1.02v-44.05c17.457-6.191 30-22.86 30-42.42 0-24.81-20.19-45-45-45s-45 20.19-45 45c0 19.56 12.543 36.229 30 42.42v44.05h-59c-8.28 0-15 6.72-15 15v120c0 8.29 6.72 15 15 15h89.61l66.39-74.53z"/><path d="m266.071 323.664h-15.071v-114.05c17.457-6.191 30-22.86 30-42.42 0-24.81-20.19-45-45-45s-45 20.19-45 45c0 19.56 12.543 36.229 30 42.42v114.05h-76.14l57.43 65.69c4.98 5.69 4.94 14.2-.09 19.85l-57.42 64.46h120.87l66.39-74.53z"/><path d="m508.201 388.124-52.94-59.43c-2.84-3.2-6.92-5.03-11.2-5.03h-69.27v-144.02h122.21c12.128.395 19.593-14.943 11.81-24.24l-35.65-45.57 35.81-47.46c7.547-9.348.031-24.419-11.97-24.03h-137.211c-8.29 0-15 6.71-15 15v270.32h-38.88l57.43 65.69c4.97 5.69 4.93 14.2-.1 19.85l-57.42 64.46h138.24c4.33 0 8.44-1.87 11.29-5.13l52.94-60.56c4.981-5.69 4.941-14.2-.089-19.85z"/></g></svg>