<svg id="Layer_1" enable-background="new 0 0 53 53" height="512" viewBox="0 0 53 53" width="512" xmlns="http://www.w3.org/2000/svg"><g><path d="m31.074852 47.1080704h-1.6885376v-3.869873h-11.3399658v3.869873h-1.6756592c-.8371582 0-1.5140381.6679688-1.5140381 1.505188 0 .8282471.6768799 1.505127 1.5140381 1.505127h14.7041626c.8283081 0 1.505188-.6768799 1.505188-1.505127 0-.8372193-.6768799-1.505188-1.505188-1.505188z"/><path d="m25.7135239 29.459877c-.1210938.0273438-.2431641.0410156-.3652344.0410156-.4921875 0-.9511719-.2216797-1.2597656-.609375-.3066406-.3857422-.4189453-.8828125-.3085938-1.3642578l1.5898438-6.8671875 12.1162109-12.1162109h-30.4620972c-2.4202881 0-4.3823242 1.9620361-4.3823242 4.3823242v21.934082h42.1567993v-19.2075805l-12.2186279 12.2192993z"/><path d="m2.6415634 37.8519669c0 2.4202881 1.9620361 4.3823242 4.3823242 4.3823242h33.3921509c2.4202881 0 4.3823242-1.9620361 4.3823242-4.3823242v-1.9916992h-42.1567993zm18.9020386.4458007h4.2763672c.2763672 0 .5.2236328.5.5s-.2236328.5-.5.5h-4.2763672c-.2763672 0-.5-.2236328-.5-.5s.2236328-.5.5-.5z"/><path d="m49.8137436 6.5929337-3.166626-3.166626c-.7261963-.7262573-1.9036865-.7262573-2.6299438 0l-1.0152588 1.0152588 2.8855591 2.8856201c.0043945.0040894.0102539.0053711.0145264.0096436s.0055542.0101318.0096436.0145264l2.8868408 2.8867798 1.0152588-1.0152588c.7262572-.7262574.7262572-1.9036866-.0000001-2.6299439z"/><path d="m27.912 15.704h22.151v3.6h-22.151z" transform="matrix(.707 -.707 .707 .707 -.959 32.692)"/><path d="m42.2948837 5.1485977-15.6626587 15.6626587.0002442.0001831 2.5437011 2.5441895 15.6628418-15.6628418z"/><path d="m24.7549667 27.7518082c-.1018677.4403687.2929077.8352051.7333374.7332764l6.012146-1.390686-5.3546143-5.3555298z"/></g></svg>